<?xml version="1.0" encoding="UTF-8"?>
<svg xmlns="http://www.w3.org/2000/svg" xmlns:xlink="http://www.w3.org/1999/xlink" width="95px" height="30px" viewBox="0 0 95 30" version="1.1">
<g id="surface1">
<path style=" stroke:none;fill-rule:nonzero;fill:rgb(100%,100%,100%);fill-opacity:1;" d="M 23.355469 22.574219 L 18.570312 21.542969 L 23.550781 20.777344 L 24.714844 21.832031 Z M 42.839844 24.605469 C 42.839844 25.828125 42.003906 26.59375 40.476562 26.59375 L 39.113281 26.59375 L 39.101562 24.835938 L 39.050781 22.78125 L 40.453125 22.78125 C 42 22.78125 42.839844 23.417969 42.839844 24.605469 Z M 41.816406 24.667969 C 41.816406 23.992188 41.269531 23.53125 40.484375 23.53125 L 40.03125 23.53125 L 40.027344 25.894531 L 40.550781 25.867188 C 41.277344 25.832031 41.816406 25.40625 41.816406 24.667969 Z M 9.089844 21.542969 L 4.109375 20.777344 L 2.941406 21.832031 L 4.304688 22.574219 Z M 9.808594 22.90625 L 5.839844 24.441406 L 5.457031 25.703125 L 6.769531 25.734375 Z M 4.101562 16.339844 L 2.359375 16.695312 L 3.234375 18.332031 L 8.4375 19.71875 Z M 37.425781 25.007812 L 35.757812 22.78125 L 34.4375 22.78125 L 34.4375 22.867188 L 35.039062 23.652344 L 34.429688 26.59375 L 35.433594 26.59375 L 35.722656 24.238281 L 37.542969 26.59375 L 38.234375 26.59375 L 38.234375 25.492188 L 38.339844 22.78125 L 37.328125 22.78125 Z M 32.835938 24.863281 L 32.847656 26.59375 L 33.753906 26.59375 L 33.753906 24.863281 L 33.800781 22.78125 L 32.785156 22.78125 Z M 21.523438 11.949219 L 19.941406 17.296875 L 23.128906 12.976562 L 22.992188 11.089844 Z M 43.480469 24.863281 L 43.492188 26.59375 L 44.398438 26.59375 L 44.398438 24.863281 L 44.445312 22.78125 L 43.429688 22.78125 Z M 58.4375 24.652344 C 58.4375 25.84375 57.628906 26.652344 56.429688 26.652344 C 55.207031 26.652344 54.398438 25.878906 54.398438 24.703125 C 54.398438 23.535156 55.25 22.699219 56.433594 22.699219 C 57.636719 22.699219 58.4375 23.480469 58.4375 24.652344 Z M 57.414062 24.667969 C 57.414062 23.957031 56.996094 23.496094 56.402344 23.496094 C 55.8125 23.496094 55.429688 23.953125 55.429688 24.71875 C 55.429688 25.449219 55.867188 25.878906 56.453125 25.878906 C 57.058594 25.878906 57.414062 25.390625 57.414062 24.667969 Z M 47.714844 22.78125 L 49.242188 26.59375 L 48.15625 26.59375 L 47.910156 25.945312 L 46.078125 25.945312 L 45.820312 26.59375 L 44.835938 26.59375 L 46.203125 23.46875 L 45.976562 22.867188 L 45.976562 22.78125 Z M 47.628906 25.203125 L 47.015625 23.589844 L 46.363281 25.222656 Z M 60.734375 25.566406 C 61.621094 24.996094 61.886719 24.488281 61.886719 23.941406 C 61.886719 23.046875 61.195312 22.691406 60.101562 22.710938 C 59.597656 22.714844 59.148438 22.8125 58.8125 22.953125 L 58.8125 23.921875 C 59.226562 23.703125 59.597656 23.574219 60.078125 23.574219 C 60.578125 23.574219 60.867188 23.75 60.867188 24.089844 C 60.867188 24.441406 60.617188 24.683594 59.890625 25.226562 L 58.890625 25.976562 L 58.890625 26.59375 L 62.050781 26.59375 L 62.050781 25.664062 L 60.332031 25.828125 Z M 64.730469 24.191406 C 64.226562 24.191406 63.898438 24.367188 63.625 24.566406 L 63.636719 23.5 L 65.722656 23.632812 L 65.722656 22.777344 L 62.734375 22.777344 L 62.734375 24.988281 L 63.511719 25.246094 C 63.648438 25.128906 63.976562 25.003906 64.234375 25.003906 C 64.542969 25.003906 64.703125 25.128906 64.703125 25.375 C 64.703125 25.683594 64.429688 25.847656 63.960938 25.847656 C 63.507812 25.847656 63.015625 25.699219 62.582031 25.5 L 62.582031 26.378906 C 62.867188 26.527344 63.394531 26.636719 63.960938 26.636719 C 65.085938 26.636719 65.832031 26.160156 65.832031 25.355469 C 65.832031 24.457031 65.246094 24.191406 64.730469 24.191406 Z M 20.886719 25.734375 L 22.199219 25.703125 L 21.816406 24.441406 L 17.851562 22.90625 Z M 23.558594 16.339844 L 19.222656 19.71875 L 24.425781 18.332031 L 25.300781 16.695312 Z M 4.527344 12.976562 L 7.71875 17.296875 L 6.136719 11.949219 L 4.667969 11.089844 Z M 52.707031 25.566406 C 53.59375 24.996094 53.859375 24.488281 53.859375 23.941406 C 53.859375 23.046875 53.167969 22.691406 52.074219 22.710938 C 51.570312 22.714844 51.121094 22.8125 50.785156 22.953125 L 50.785156 23.921875 C 51.199219 23.703125 51.570312 23.574219 52.050781 23.574219 C 52.550781 23.574219 52.839844 23.75 52.839844 24.089844 C 52.839844 24.441406 52.589844 24.683594 51.859375 25.226562 L 50.863281 25.976562 L 50.863281 26.59375 L 54.023438 26.59375 L 54.023438 25.664062 L 52.304688 25.828125 Z M 14.453125 12.542969 C 14.457031 12.539062 14.460938 12.53125 14.457031 12.527344 C 14.222656 11.816406 13.9375 11.132812 13.601562 10.492188 C 13.597656 10.484375 13.589844 10.476562 13.578125 10.476562 C 12.574219 10.441406 11.402344 10.023438 10.554688 9.402344 C 10.550781 9.398438 10.542969 9.398438 10.542969 9.40625 C 10.253906 10.5625 10.140625 12.382812 10.4375 15.238281 C 10.945312 20.09375 12.597656 23.820312 13.460938 24.410156 C 13.671875 24.558594 13.949219 24.414062 14.027344 24.183594 C 14.035156 24.167969 14.039062 24.152344 14.027344 24.160156 C 13.6875 24.355469 12.890625 22.84375 12.527344 20.53125 C 12.191406 18.382812 12.460938 15.039062 14.1875 12.859375 C 14.242188 12.785156 14.34375 12.65625 14.453125 12.542969 Z M 80.402344 7.917969 L 79.484375 7.917969 L 79.484375 11.730469 L 80.402344 11.730469 Z M 68.5625 10.984375 C 68.273438 10.984375 67.890625 10.859375 67.550781 10.601562 L 67.164062 11.355469 C 67.535156 11.644531 68.039062 11.777344 68.554688 11.777344 C 69.339844 11.777344 69.996094 11.460938 69.996094 10.613281 C 69.996094 9.84375 69.410156 9.652344 68.773438 9.410156 C 68.316406 9.242188 68.167969 9.148438 68.167969 8.953125 C 68.167969 8.75 68.351562 8.652344 68.582031 8.652344 C 68.875 8.652344 69.167969 8.796875 69.425781 9.007812 L 69.910156 8.289062 C 69.5625 8.003906 69.089844 7.871094 68.574219 7.871094 C 67.800781 7.871094 67.238281 8.257812 67.238281 9.003906 C 67.238281 9.765625 67.84375 10.023438 68.410156 10.214844 C 68.875 10.371094 69.054688 10.453125 69.054688 10.667969 C 69.054688 10.84375 68.90625 10.984375 68.5625 10.984375 Z M 66.777344 7.917969 L 65.949219 7.917969 L 65.789062 9.367188 L 66.414062 9.367188 Z M 61.15625 10.929688 L 59.292969 10.929688 L 59.292969 10.222656 L 60.917969 10.222656 L 60.917969 9.449219 L 59.292969 9.449219 L 59.292969 8.71875 L 61.082031 8.71875 L 61.082031 7.917969 L 58.417969 7.917969 L 58.417969 11.730469 L 61.15625 11.730469 Z M 62.671875 9.433594 L 62.683594 9.433594 L 64.230469 11.730469 L 65.113281 11.730469 L 65.113281 7.917969 L 64.226562 7.917969 L 64.226562 10.269531 L 64.214844 10.273438 L 62.652344 7.917969 L 61.792969 7.917969 L 61.792969 11.730469 L 62.671875 11.730469 Z M 85.960938 10.628906 L 86.316406 10.1875 C 86.710938 10.625 87.082031 11.21875 87.265625 11.730469 L 88.28125 11.730469 C 88.011719 10.976562 87.480469 10.128906 86.917969 9.535156 L 88.253906 7.917969 L 87.117188 7.917969 L 85.972656 9.425781 L 85.960938 9.425781 L 85.960938 7.917969 L 85.0625 7.917969 L 85.0625 11.730469 L 85.960938 11.730469 Z M 76.730469 11.730469 L 75.851562 11.730469 L 75.851562 7.917969 L 77.339844 7.917969 C 78.320312 7.917969 78.707031 8.449219 78.707031 9.167969 C 78.707031 9.695312 78.460938 10.074219 78.011719 10.269531 C 78.441406 10.726562 78.71875 11.226562 78.921875 11.730469 L 77.90625 11.730469 C 77.722656 11.292969 77.449219 10.863281 77.078125 10.5 L 76.730469 10.5 Z M 76.730469 9.714844 L 77.179688 9.714844 C 77.566406 9.714844 77.777344 9.527344 77.777344 9.210938 C 77.777344 8.921875 77.597656 8.707031 77.195312 8.707031 L 76.730469 8.707031 Z M 54.660156 9.625 L 54.679688 9.625 L 55.453125 11.027344 L 56.027344 11.027344 L 56.800781 9.628906 L 56.8125 9.628906 L 56.8125 11.730469 L 57.703125 11.730469 L 57.703125 7.917969 L 56.796875 7.917969 L 55.746094 9.941406 L 55.738281 9.941406 L 54.679688 7.917969 L 53.773438 7.917969 L 53.773438 11.730469 L 54.660156 11.730469 Z M 40.359375 11.777344 C 41.003906 11.777344 41.519531 11.589844 41.859375 11.285156 L 41.351562 10.546875 C 41.074219 10.789062 40.789062 10.917969 40.402344 10.917969 C 39.714844 10.917969 39.332031 10.425781 39.332031 9.828125 C 39.332031 9.132812 39.800781 8.722656 40.347656 8.722656 C 40.773438 8.722656 41.101562 8.921875 41.292969 9.152344 L 41.867188 8.472656 C 41.476562 8.046875 40.921875 7.863281 40.375 7.863281 C 39.097656 7.863281 38.386719 8.707031 38.386719 9.828125 C 38.386719 11.070312 39.226562 11.777344 40.359375 11.777344 Z M 33.765625 7.917969 L 32.847656 7.917969 L 32.847656 11.730469 L 33.765625 11.730469 Z M 36.464844 11.777344 C 37.109375 11.777344 37.625 11.589844 37.960938 11.285156 L 37.457031 10.546875 C 37.179688 10.789062 36.894531 10.917969 36.507812 10.917969 C 35.820312 10.917969 35.4375 10.425781 35.4375 9.828125 C 35.4375 9.132812 35.90625 8.722656 36.453125 8.722656 C 36.875 8.722656 37.203125 8.921875 37.398438 9.152344 L 37.972656 8.472656 C 37.582031 8.046875 37.027344 7.863281 36.480469 7.863281 C 35.199219 7.863281 34.492188 8.707031 34.492188 9.828125 C 34.492188 11.070312 35.328125 11.777344 36.464844 11.777344 Z M 45.527344 11.730469 L 46.210938 9.195312 L 46.21875 9.195312 L 46.871094 11.730469 L 47.667969 11.730469 L 48.875 7.917969 L 47.902344 7.917969 L 47.257812 10.289062 L 47.242188 10.289062 L 46.65625 7.917969 L 45.753906 7.917969 L 45.152344 10.296875 L 45.140625 10.296875 L 44.5 7.917969 L 43.527344 7.917969 L 44.726562 11.730469 Z M 49.117188 9.824219 C 49.117188 8.675781 49.921875 7.863281 51.082031 7.863281 C 52.222656 7.863281 53.042969 8.652344 53.042969 9.824219 C 53.042969 10.988281 52.222656 11.777344 51.082031 11.777344 C 49.921875 11.777344 49.117188 10.972656 49.117188 9.824219 Z M 50.058594 9.824219 C 50.058594 10.445312 50.480469 10.945312 51.082031 10.945312 C 51.675781 10.945312 52.105469 10.457031 52.105469 9.824219 C 52.105469 9.191406 51.675781 8.703125 51.082031 8.703125 C 50.480469 8.703125 50.058594 9.199219 50.058594 9.824219 Z M 11.121094 0.851562 C 12.324219 1.082031 13.632812 1.742188 15.417969 2.96875 C 15.464844 3 15.464844 2.835938 15.40625 2.757812 C 15.066406 2.296875 13.863281 1.355469 12.652344 0.886719 C 12.640625 0.882812 12.640625 0.867188 12.65625 0.863281 C 13.03125 0.742188 13.433594 0.695312 13.832031 0.695312 C 15.863281 0.695312 17.550781 2.15625 17.90625 4.082031 C 17.914062 4.121094 17.945312 4.152344 17.980469 4.164062 C 18.253906 4.238281 18.515625 4.320312 18.769531 4.40625 C 18.777344 4.40625 18.78125 4.402344 18.78125 4.398438 C 18.492188 1.921875 16.386719 0 13.832031 0 C 12.855469 0 11.949219 0.28125 11.183594 0.761719 C 11.15625 0.777344 11.117188 0.800781 11.105469 0.808594 C 11.074219 0.832031 11.074219 0.84375 11.121094 0.851562 Z M 78.171875 15.117188 C 78.996094 15.117188 79.632812 15.5 80.007812 15.949219 L 81.125 14.625 C 80.363281 13.800781 79.289062 13.449219 78.226562 13.449219 C 75.742188 13.449219 74.367188 15.085938 74.367188 17.261719 C 74.367188 19.667969 75.992188 21.046875 78.195312 21.046875 C 79.445312 21.046875 80.449219 20.679688 81.105469 20.085938 L 80.125 18.660156 C 79.582031 19.128906 79.027344 19.378906 78.277344 19.378906 C 76.941406 19.378906 76.203125 18.417969 76.203125 17.261719 C 76.203125 15.90625 77.109375 15.117188 78.171875 15.117188 Z M 74.777344 10.546875 C 74.5 10.789062 74.214844 10.917969 73.828125 10.917969 C 73.140625 10.917969 72.757812 10.425781 72.757812 9.828125 C 72.757812 9.132812 73.226562 8.722656 73.773438 8.722656 C 74.199219 8.722656 74.527344 8.921875 74.71875 9.152344 L 75.292969 8.472656 C 74.902344 8.046875 74.347656 7.863281 73.800781 7.863281 C 72.523438 7.863281 71.8125 8.707031 71.8125 9.828125 C 71.8125 11.070312 72.652344 11.777344 73.785156 11.777344 C 74.429688 11.777344 74.945312 11.589844 75.285156 11.285156 Z M 71.132812 17.261719 C 71.132812 19.441406 69.714844 20.953125 67.316406 20.953125 L 64.71875 20.953125 L 64.71875 13.550781 L 67.285156 13.550781 C 69.632812 13.550781 71.132812 15.074219 71.132812 17.261719 Z M 69.308594 17.261719 C 69.308594 16.023438 68.464844 15.105469 67.328125 15.105469 L 66.417969 15.105469 L 66.417969 19.398438 L 67.203125 19.398438 C 68.472656 19.398438 69.308594 18.460938 69.308594 17.261719 Z M 84.492188 11.285156 L 83.988281 10.546875 C 83.707031 10.789062 83.425781 10.917969 83.035156 10.917969 C 82.347656 10.917969 81.96875 10.425781 81.96875 9.828125 C 81.96875 9.132812 82.433594 8.722656 82.984375 8.722656 C 83.40625 8.722656 83.734375 8.921875 83.929688 9.152344 L 84.503906 8.472656 C 84.113281 8.046875 83.558594 7.863281 83.011719 7.863281 C 81.730469 7.863281 81.023438 8.707031 81.023438 9.828125 C 81.023438 11.070312 81.859375 11.777344 82.992188 11.777344 C 83.640625 11.777344 84.15625 11.589844 84.492188 11.285156 Z M 63.84375 19.398438 L 60.472656 19.398438 L 60.472656 13.550781 L 58.691406 13.550781 L 58.691406 20.953125 L 63.84375 20.953125 Z M 94.996094 16.105469 C 94.996094 17.753906 93.902344 18.566406 92.222656 18.566406 L 91.242188 18.566406 L 91.242188 20.953125 L 89.542969 20.953125 L 89.542969 13.550781 L 92.359375 13.550781 C 94.183594 13.550781 94.996094 14.625 94.996094 16.105469 Z M 93.191406 16.0625 C 93.191406 15.5 92.839844 15.085938 92.054688 15.085938 L 91.242188 15.085938 L 91.242188 17.042969 L 92.023438 17.042969 C 92.796875 17.042969 93.191406 16.679688 93.191406 16.0625 Z M 92.089844 7.917969 L 92.089844 8.71875 L 93.085938 8.71875 L 93.085938 11.730469 L 94 11.730469 L 94 8.71875 L 94.996094 8.71875 L 94.996094 7.917969 Z M 86.570312 17.867188 C 86.570312 18.941406 85.996094 19.417969 85.234375 19.417969 C 84.378906 19.417969 83.929688 18.792969 83.929688 17.867188 L 83.929688 13.550781 L 82.179688 13.550781 L 82.179688 17.972656 C 82.179688 20.054688 83.421875 21.046875 85.234375 21.046875 C 87.195312 21.046875 88.3125 19.941406 88.3125 17.972656 L 88.3125 13.550781 L 86.570312 13.550781 Z M 91.585938 10.929688 L 89.722656 10.929688 L 89.722656 10.222656 L 91.34375 10.222656 L 91.34375 9.449219 L 89.722656 9.449219 L 89.722656 8.71875 L 91.511719 8.71875 L 91.511719 7.917969 L 88.84375 7.917969 L 88.84375 11.730469 L 91.585938 11.730469 Z M 12.332031 8.359375 C 11.902344 8.195312 11.503906 7.964844 11.15625 7.679688 C 11.152344 7.675781 11.144531 7.679688 11.144531 7.683594 C 10.992188 7.882812 10.839844 8.15625 10.703125 8.519531 C 10.699219 8.527344 10.703125 8.539062 10.710938 8.542969 C 11.414062 9.097656 12.269531 9.464844 13.207031 9.578125 C 13.210938 9.578125 13.21875 9.570312 13.214844 9.566406 C 12.949219 9.140625 12.660156 8.738281 12.34375 8.367188 C 12.339844 8.363281 12.335938 8.359375 12.332031 8.359375 Z M 11.953125 24.945312 C 8.304688 19.28125 7.183594 10.480469 6.96875 6.253906 C 6.96875 5.929688 6.996094 5.8125 7.128906 5.726562 C 7.679688 5.367188 9.351562 4.675781 10.339844 4.503906 C 10.558594 4.464844 10.699219 4.625 10.699219 4.90625 L 10.699219 7.300781 C 10.699219 7.300781 10.699219 7.304688 10.695312 7.308594 C 10.011719 8.199219 9.289062 10.347656 9.832031 15.320312 C 10.316406 19.761719 11.945312 24.113281 13.117188 24.898438 C 14.78125 26.007812 15.507812 21.453125 15.667969 20.480469 C 16.375 16.277344 15.328125 10.414062 12.253906 7.429688 C 12.25 7.425781 12.246094 7.421875 12.246094 7.417969 L 12.246094 4.660156 C 12.246094 4.453125 12.296875 4.292969 12.488281 4.179688 C 12.5625 4.136719 12.730469 4.101562 12.972656 4.085938 C 14.996094 3.933594 17.882812 4.304688 20.433594 5.667969 C 20.679688 5.796875 20.699219 6.023438 20.6875 6.28125 C 20.472656 10.515625 19.210938 18.578125 15.671875 24.953125 C 15.589844 25.097656 15.636719 25.28125 15.78125 25.375 C 16.394531 25.765625 17.234375 26.503906 17.488281 26.847656 C 17.519531 26.890625 17.5 26.941406 17.449219 26.917969 C 16.574219 26.527344 15.363281 26.203125 13.828125 26.203125 C 12.292969 26.203125 11.085938 26.527344 10.210938 26.917969 C 10.15625 26.941406 10.132812 26.894531 10.167969 26.847656 C 10.417969 26.507812 11.246094 25.78125 11.859375 25.386719 C 12.007812 25.289062 12.050781 25.09375 11.953125 24.945312 Z M 15.90625 6.660156 L 16.164062 7.347656 L 17.851562 7.679688 L 16.203125 8.007812 L 16.023438 8.695312 L 16.710938 8.898438 L 17.851562 7.679688 L 17.457031 9.34375 L 17.976562 9.863281 L 18.4375 9.347656 L 17.851562 7.679688 L 19.132812 8.902344 L 19.796875 8.699219 L 19.535156 8.011719 L 17.851562 7.679688 L 19.5 7.351562 L 19.679688 6.664062 L 18.992188 6.457031 L 17.851562 7.679688 L 18.246094 6.011719 L 17.726562 5.492188 L 17.265625 6.011719 L 17.851562 7.679688 L 16.570312 6.457031 Z M 55.769531 20.953125 C 55.414062 20.105469 54.882812 19.273438 54.164062 18.566406 L 53.484375 18.566406 L 53.484375 20.953125 L 51.785156 20.953125 L 51.785156 13.550781 L 54.675781 13.550781 C 56.574219 13.550781 57.324219 14.585938 57.324219 15.980469 C 57.324219 17 56.84375 17.742188 55.976562 18.117188 C 56.8125 19.003906 57.34375 19.972656 57.742188 20.953125 Z M 55.519531 16.0625 C 55.519531 15.5 55.175781 15.085938 54.394531 15.085938 L 53.484375 15.085938 L 53.484375 17.042969 L 54.363281 17.042969 C 55.113281 17.042969 55.519531 16.679688 55.519531 16.0625 Z M 10.269531 1.527344 C 11.824219 1.703125 13.398438 2.613281 14.234375 3.082031 C 14.265625 3.097656 14.292969 2.96875 14.207031 2.886719 C 13.089844 1.804688 11.597656 1.226562 10.683594 1.121094 C 10.671875 1.121094 10.660156 1.125 10.652344 1.132812 C 10.519531 1.238281 10.371094 1.375 10.261719 1.488281 C 10.246094 1.503906 10.242188 1.523438 10.269531 1.527344 Z M 8.890625 4.390625 C 9.171875 4.289062 9.445312 4.199219 9.695312 4.128906 C 9.726562 4.121094 9.746094 4.097656 9.75 4.066406 C 9.832031 3.589844 10.023438 3.085938 10.222656 2.753906 C 10.246094 2.714844 10.269531 2.671875 10.304688 2.636719 C 10.34375 2.59375 10.394531 2.558594 10.453125 2.558594 C 10.976562 2.546875 12.074219 2.761719 13.066406 3.234375 C 13.097656 3.238281 13.109375 3.113281 12.992188 3.015625 C 12.277344 2.421875 10.867188 1.925781 9.953125 1.875 C 9.941406 1.871094 9.925781 1.878906 9.917969 1.890625 C 9.863281 1.953125 9.816406 2.019531 9.765625 2.089844 C 9.292969 2.75 8.980469 3.53125 8.878906 4.378906 C 8.878906 4.386719 8.882812 4.390625 8.890625 4.390625 Z M 7.339844 28.863281 C 3.785156 26.75 1.324219 23.011719 1.089844 18.632812 C 0.878906 14.730469 2.484375 11.144531 5.175781 8.65625 C 5.1875 8.648438 5.195312 8.636719 5.203125 8.628906 C 5.347656 8.496094 5.511719 8.332031 5.449219 8 C 5.394531 7.71875 5.304688 7.210938 5.285156 7.105469 C 5.261719 6.976562 5.234375 6.898438 5.109375 6.996094 C 1.796875 9.683594 -0.222656 13.816406 0.0195312 18.34375 C 0.28125 23.230469 3.117188 27.382812 7.171875 29.609375 C 7.226562 29.628906 7.273438 29.609375 7.292969 29.546875 C 7.316406 29.472656 7.398438 29.1875 7.417969 29.109375 C 7.441406 29.027344 7.457031 28.949219 7.339844 28.863281 Z M 50.785156 17.25 C 50.785156 19.511719 49.1875 21.046875 46.976562 21.046875 C 44.722656 21.046875 43.160156 19.480469 43.160156 17.25 C 43.160156 15.023438 44.722656 13.449219 46.976562 13.449219 C 49.1875 13.449219 50.785156 14.980469 50.785156 17.25 Z M 48.957031 17.25 C 48.957031 16.023438 48.125 15.074219 46.976562 15.074219 C 45.808594 15.074219 44.984375 16.042969 44.984375 17.25 C 44.984375 18.460938 45.808594 19.429688 46.976562 19.429688 C 48.125 19.429688 48.957031 18.480469 48.957031 17.25 Z M 13.828125 26.800781 C 11.253906 26.800781 8.667969 27.695312 8.351562 29.925781 C 8.34375 29.976562 8.371094 29.980469 8.390625 29.972656 C 9.777344 29.246094 11.667969 28.828125 13.828125 28.828125 C 15.988281 28.828125 17.878906 29.246094 19.269531 29.972656 C 19.289062 29.980469 19.316406 29.976562 19.304688 29.925781 C 18.992188 27.695312 16.402344 26.800781 13.828125 26.800781 Z M 39.75 18.160156 L 39.71875 18.160156 L 38.582031 13.550781 L 36.828125 13.550781 L 35.660156 18.167969 L 35.640625 18.167969 L 34.398438 13.550781 L 32.511719 13.550781 L 34.835938 20.953125 L 36.390625 20.953125 L 37.714844 16.03125 L 37.734375 16.03125 L 38.996094 20.953125 L 40.542969 20.953125 L 42.886719 13.550781 L 41 13.550781 Z M 22.550781 6.996094 C 22.425781 6.898438 22.394531 6.976562 22.375 7.105469 C 22.355469 7.210938 22.265625 7.71875 22.210938 8 C 22.148438 8.332031 22.308594 8.496094 22.453125 8.628906 C 22.464844 8.636719 22.472656 8.648438 22.480469 8.65625 C 25.175781 11.144531 26.777344 14.730469 26.570312 18.632812 C 26.335938 23.011719 23.875 26.75 20.320312 28.863281 C 20.203125 28.949219 20.21875 29.027344 20.238281 29.109375 C 20.261719 29.1875 20.339844 29.472656 20.363281 29.546875 C 20.386719 29.609375 20.433594 29.628906 20.484375 29.609375 C 24.542969 27.382812 27.378906 23.230469 27.640625 18.34375 C 27.882812 13.816406 25.863281 9.683594 22.550781 6.996094 Z M 22.550781 6.996094 "/>
</g>
</svg>
